<svg width="143" height="143" viewBox="0 0 143 143" fill="none" xmlns="http://www.w3.org/2000/svg">
<path d="M127.583 52.7312C102.111 15.1938 40.8891 15.1938 15.4172 52.7312C6.47968 65.9141 4.24531 80.6609 4.46875 83.7891C5.13906 92.7266 25.2484 129.817 71.5 129.594C117.528 129.37 137.637 92.95 138.531 83.7891C138.755 80.6609 136.52 65.9141 127.583 52.7312Z" fill="#83BF4F"/>
<path d="M4.46875 83.7891C5.13906 92.7266 19.2156 132.052 71.5 131.828C123.561 131.605 137.637 92.95 138.531 83.7891C138.531 83.7891 111.495 106.133 71.7234 106.133C31.5047 106.133 4.46875 83.7891 4.46875 83.7891Z" fill="#FFDF99"/>
<path d="M58.7641 71.5C55.6359 71.5 49.1562 80.4375 49.1562 80.4375C49.1562 80.4375 55.6359 77.5328 58.7641 77.5328C61.8922 77.5328 68.3719 80.4375 68.3719 80.4375C68.3719 80.4375 61.8922 71.5 58.7641 71.5Z" fill="#3E4347"/>
<path d="M84.2359 71.5C81.1078 71.5 74.6281 80.4375 74.6281 80.4375C74.6281 80.4375 81.1078 77.5328 84.2359 77.5328C87.3641 77.5328 93.8438 80.4375 93.8438 80.4375C93.8438 80.4375 87.3641 71.5 84.2359 71.5Z" fill="#3E4347"/>
<path d="M111.719 64.7969C126.527 64.7969 138.531 52.7925 138.531 37.9844C138.531 23.1762 126.527 11.1719 111.719 11.1719C96.9106 11.1719 84.9062 23.1762 84.9062 37.9844C84.9062 52.7925 96.9106 64.7969 111.719 64.7969Z" fill="#83BF4F"/>
<path d="M111.719 55.8594C121.591 55.8594 129.594 47.8565 129.594 37.9844C129.594 28.1123 121.591 20.1094 111.719 20.1094C101.847 20.1094 93.8438 28.1123 93.8438 37.9844C93.8438 47.8565 101.847 55.8594 111.719 55.8594Z" fill="#FFE655"/>
<path d="M120.656 38.4312C120.656 43.3469 116.634 47.3687 111.719 47.3687C106.803 47.3687 102.781 43.3469 102.781 38.4312C102.781 33.5156 106.803 29.4937 111.719 29.4937C116.634 29.4937 120.656 33.5156 120.656 38.4312Z" fill="#3E4347"/>
<path d="M58.0938 37.9844C58.0938 52.7313 46.0281 64.7969 31.2812 64.7969C16.5344 64.7969 4.46875 52.7313 4.46875 37.9844C4.46875 23.2375 16.5344 11.1719 31.2812 11.1719C46.0281 11.1719 58.0938 23.2375 58.0938 37.9844Z" fill="#83BF4F"/>
<path d="M31.2812 55.8594C41.1533 55.8594 49.1562 47.8565 49.1562 37.9844C49.1562 28.1123 41.1533 20.1094 31.2812 20.1094C21.4092 20.1094 13.4062 28.1123 13.4062 37.9844C13.4062 47.8565 21.4092 55.8594 31.2812 55.8594Z" fill="#FFE655"/>
<path d="M40.2188 38.4312C40.2188 43.3469 36.1969 47.3687 31.2812 47.3687C26.3656 47.3687 22.3438 43.3469 22.3438 38.4312C22.3438 33.5156 26.3656 29.4937 31.2812 29.4937C36.1969 29.4937 40.2188 33.5156 40.2188 38.4312Z" fill="#3E4347"/>
</svg>
