<svg width="142" height="142" viewBox="0 0 142 142" fill="none" xmlns="http://www.w3.org/2000/svg">
<path d="M71.6324 4.57062C26.1369 4.57062 26.503 46.6381 26.503 47.3037C26.503 74.55 28.5886 113.034 39.4938 128.177C43.8166 132.5 52.174 132.5 52.174 132.5L71 134.49L90 132.5C90 132.5 96 132 102.506 128.188C113.411 113.045 115.497 74.5611 115.497 47.3148C115.486 46.6381 117.128 4.57062 71.6324 4.57062Z" fill="#FFE13B"/>
<path d="M71.6324 4.57062C26.1369 4.57062 26.503 46.6381 26.503 47.3037C26.503 74.55 28.5886 113.034 39.4938 128.177C46 128.177 52.174 132 52.174 132L71 134.49L90.5 132.5C90.5 132.5 95.5 131.5 102.506 128.188C113.411 113.045 115.497 74.5611 115.497 47.3148C115.486 46.6381 117.128 4.57062 71.6324 4.57062Z" fill="url(#paint0_radial)"/>
<path d="M71.1443 104.78H71.0001C42.5446 104.814 30 108 20 119.5L29.5 125L40 129.5L52 132.5L64.5 134.5L76 134L87.5 133L108 127L115.5 122.5L123.5 118C108.5 108 99.7329 104.78 71.1443 104.78Z" fill="url(#paint1_linear)"/>
<path d="M71 99.9325H60.9269V111.004C60.9269 116.007 65.0316 120.068 70.0903 120.068H71.9208C76.9795 120.068 81.0842 116.007 81.0842 111.004V99.9325H71Z" fill="#C48E6A"/>
<path d="M70.8003 16.5408C51.7191 16.5408 34.0468 30.7297 34.0468 60.8159C34.0468 84.9892 49.0122 99.278 62.0363 103.893C65.1425 104.991 68.1378 105.546 70.8003 105.546C73.4407 105.546 76.4249 105.002 79.5089 103.915C92.5552 99.3223 107.554 85.0225 107.554 60.827C107.554 30.7297 89.8816 16.5408 70.8003 16.5408Z" fill="#FADCBC"/>
<path d="M75.2267 75.493C75.1158 75.4486 74.9937 75.4153 74.8717 75.4042H67.1172C66.9951 75.4153 66.8842 75.4486 66.7622 75.493C66.0633 75.7814 65.675 76.5025 66.0078 77.2791C66.3406 78.0556 67.8826 80.23 70.9889 80.23C74.0951 80.23 75.6372 78.0556 75.97 77.2791C76.3139 76.5136 75.9367 75.7814 75.2267 75.493Z" fill="#C48E6A"/>
<path d="M60.7938 55.2691C59.7621 53.9045 57.388 51.9298 52.773 51.9298C48.158 51.9298 45.7728 53.9156 44.7522 55.2691C44.2974 55.8681 44.4083 56.567 44.73 56.9886C45.0185 57.3769 45.8838 57.743 46.8378 57.4212C47.7919 57.0995 49.6557 56.1344 52.773 56.1122C55.8903 56.1344 57.7541 57.0995 58.7082 57.4212C59.6622 57.743 60.5275 57.388 60.816 56.9886C61.1377 56.567 61.2486 55.8681 60.7938 55.2691Z" fill="#AB872F"/>
<path d="M97.2479 55.2691C96.2162 53.9045 93.8421 51.9298 89.2271 51.9298C84.6121 51.9298 82.2269 53.9156 81.2063 55.2691C80.7515 55.8681 80.8624 56.567 81.1841 56.9886C81.4726 57.3769 82.3379 57.743 83.292 57.4212C84.246 57.0995 86.1098 56.1344 89.2271 56.1122C92.3444 56.1344 94.2082 57.0995 95.1623 57.4212C96.1163 57.743 96.9816 57.388 97.2701 56.9886C97.5918 56.567 97.7027 55.8681 97.2479 55.2691Z" fill="#AB872F"/>
<path d="M89.2271 70.9001C92.2109 70.9001 94.6298 68.3969 94.6298 65.3089C94.6298 62.2209 92.2109 59.7177 89.2271 59.7177C86.2433 59.7177 83.8245 62.2209 83.8245 65.3089C83.8245 68.3969 86.2433 70.9001 89.2271 70.9001Z" fill="#5D4037"/>
<path d="M52.773 70.9001C55.7568 70.9001 58.1757 68.3969 58.1757 65.3089C58.1757 62.2209 55.7568 59.7177 52.773 59.7177C49.7892 59.7177 47.3704 62.2209 47.3704 65.3089C47.3704 68.3969 49.7892 70.9001 52.773 70.9001Z" fill="#5D4037"/>
<path d="M80.2301 84.4678C76.7355 86.5423 65.2979 86.5423 61.8034 84.4678C59.7954 83.2808 57.7541 85.1002 58.5862 86.9195C59.4071 88.7056 65.6529 92.8658 71.0445 92.8658C76.436 92.8658 82.6041 88.7056 83.4251 86.9195C84.2571 85.1002 82.227 83.2697 80.2301 84.4678Z" fill="#6D4C41"/>
<path d="M71.6324 4.57062C26.1369 4.57062 26.503 46.6381 26.503 47.3037C26.503 55.9125 26.7138 65.6417 27.3351 75.3931L34.7901 75.3709C34.7235 72.1316 36.9977 52.1073 43.7538 50.5875C68.5594 45.0184 82.593 31.8501 82.593 31.8501C86.2429 39.8265 97.6583 47.5922 101.752 50.5542C105.113 52.9837 106.145 71.1331 106.078 75.382H114.632C114.632 75.3265 114.654 75.2711 114.654 75.2045C115.275 65.4975 115.475 55.8348 115.475 47.2816C115.486 46.6381 117.128 4.57062 71.6324 4.57062Z" fill="#FFE13B"/>
<path d="M71.6324 4.57062C26.1369 4.57062 26.503 46.6381 26.503 47.3037C26.503 55.9125 26.7138 65.6417 27.3351 75.3931L34.7901 75.3709C34.7235 72.1316 36.9977 52.1073 43.7538 50.5875C68.5594 45.0184 82.593 31.8501 82.593 31.8501C86.2429 39.8265 97.6583 47.5922 101.752 50.5542C105.113 52.9837 106.145 71.1331 106.078 75.382H114.632C114.632 75.3265 114.654 75.2711 114.654 75.2045C115.275 65.4975 115.475 55.8348 115.475 47.2816C115.486 46.6381 117.128 4.57062 71.6324 4.57062Z" fill="url(#paint2_radial)"/>
<defs>
<radialGradient id="paint0_radial" cx="0" cy="0" r="1" gradientUnits="userSpaceOnUse" gradientTransform="translate(71.0001 69.5478) scale(55.6851)">
<stop offset="0.699" stop-color="#FFEE58" stop-opacity="0"/>
<stop offset="1" stop-color="#FFEE58"/>
</radialGradient>
<linearGradient id="paint1_linear" x1="71.0001" y1="104.546" x2="71.0001" y2="135.862" gradientUnits="userSpaceOnUse">
<stop stop-color="#651FFF"/>
<stop offset="0.705" stop-color="#5914F2"/>
<stop offset="1" stop-color="#530EEB"/>
</linearGradient>
<radialGradient id="paint2_radial" cx="0" cy="0" r="1" gradientUnits="userSpaceOnUse" gradientTransform="translate(74.5989 74.0067) scale(61.4028 72.6211)">
<stop offset="0.699" stop-color="#FFEE58" stop-opacity="0"/>
<stop offset="1" stop-color="#FFEE58"/>
</radialGradient>
</defs>
</svg>
