<svg width="132" height="132" viewBox="0 0 132 132" fill="none" xmlns="http://www.w3.org/2000/svg">
<path d="M19.3463 117.5L28.5 122L36.5 125L45.5 127L54 129H63.5L71.5 129.5L80.5 128L97 124L108.5 119.5C108.5 103.856 87.1509 98.1956 64.6181 98.2266C42.2194 98.2575 19.3463 100.938 19.3463 117.5Z" fill="#424242"/>
<path d="M64.2778 93.0703H54.9141V102.96C54.9141 107.436 58.7297 111.066 63.4322 111.066H65.1337C69.8362 111.066 73.6519 107.436 73.6519 102.96V93.0703H64.2778Z" fill="#DBA689"/>
<path d="M97.5253 53.9756C97.5253 53.9756 103.599 55.0275 103.599 61.5759C103.599 67.3509 99.165 69.63 94.7306 69.63V53.9756H97.5253Z" fill="#DBA689"/>
<path d="M31.2365 53.9756C31.2365 53.9756 25.1625 55.0275 25.1625 61.5759C25.1625 67.3509 29.5969 69.63 34.0312 69.63V53.9756H31.2365Z" fill="#DBA689"/>
<path d="M64.3809 11.1066C38.1872 11.1066 31.3397 31.4119 31.3397 59.9362C31.3397 89.5125 50.3456 97.1644 64.3809 97.1644C78.21 97.1644 97.4222 89.7394 97.4222 59.9362C97.4325 31.4119 90.5747 11.1066 64.3809 11.1066Z" fill="#FADCBC"/>
<path d="M53.5013 62.5866C53.5013 65.5359 51.5316 67.9181 49.0875 67.9181C46.6538 67.9181 44.6635 65.5256 44.6635 62.5866C44.6635 59.6372 46.6434 57.2447 49.0875 57.2447C51.5316 57.2447 53.5013 59.6269 53.5013 62.5866Z" fill="#262626"/>
<path d="M75.2606 62.5866C75.2606 65.5359 77.2303 67.9181 79.6847 67.9181C82.1184 67.9181 84.0984 65.5256 84.0984 62.5866C84.0984 59.6372 82.1184 57.2447 79.6847 57.2447C77.2303 57.2447 75.2606 59.6269 75.2606 62.5866Z" fill="#262626"/>
<path d="M73.951 80.6025H64.3913H54.8316C53.7385 80.6025 53.2641 81.3347 53.986 82.4484C54.9966 83.9953 58.771 86.9653 64.3913 86.9653C70.0116 86.9653 73.786 83.9953 74.7966 82.4484C75.5185 81.3347 75.0441 80.6025 73.951 80.6025Z" fill="#262626"/>
<path d="M69.001 72.4762C67.3716 72.9403 65.6803 73.1569 64.381 73.1569C63.0816 73.1569 61.3903 72.93 59.761 72.4762C59.07 72.2803 58.7916 72.9403 59.0391 73.3734C59.5547 74.2809 61.6378 76.1166 64.381 76.1166C67.1241 76.1166 69.2072 74.2809 69.7228 73.3734C69.9703 72.93 69.7022 72.27 69.001 72.4762Z" fill="#DBA689"/>
<path d="M65.175 7.38374C65.175 7.38374 64.6594 7.36312 64.4428 7.37343C64.2263 7.37343 63.7107 7.38374 63.7107 7.38374C35.4441 7.93031 26.926 24.9356 26.926 36.7228C26.926 48.18 26.9363 56.6053 26.9363 56.6053C26.9363 56.6053 27.39 56.1413 28.215 55.4916C29.1019 54.8006 30.0816 54.4191 30.0816 54.4191L31.5047 63.9891L40.92 44.3128C40.9819 44.1891 41.1057 44.1169 41.2397 44.1375L46.8188 44.7562C52.4288 45.375 58.0697 45.6844 63.7003 45.6947V45.705C63.9478 45.705 64.185 45.6947 64.4325 45.6947C64.68 45.6947 64.9172 45.705 65.1647 45.705V45.6844C70.7953 45.6637 76.4363 45.3647 82.0463 44.7459L87.6253 44.1272C87.7594 44.1169 87.8832 44.1891 87.945 44.3025L97.3604 63.9788L98.7835 54.4087C98.7835 54.4087 99.7632 54.8006 100.65 55.4812C101.485 56.1309 101.929 56.595 101.929 56.595C101.929 56.595 101.939 48.18 101.939 36.7125C101.96 24.9356 93.4416 7.93031 65.175 7.38374Z" fill="#312D2D"/>
<path d="M64.3096 0L12.8914 9.50813L64.4436 0.020625L64.3096 0Z" fill="#262626"/>
<path d="M64.5975 0.0103125L64.5666 0L64.4428 0.020625L64.5975 0.0515625V0.0103125Z" fill="#424143"/>
<path d="M64.8863 0L116.315 9.50813L64.7625 0.020625L64.8863 0Z" fill="#262626"/>
<path d="M116.335 12.1275L116.315 9.50812L64.6387 16.995H64.5769L12.8906 9.50812L12.87 12.1275L33.5672 15.7472L31.7934 20.7591C35.5884 22.4297 49.335 27.9778 64.5975 28.38C79.86 27.9675 93.1219 22.4297 96.9169 20.7591L95.1431 15.7472L116.335 12.1275Z" fill="#262626"/>
<path d="M64.5975 0.0103125L64.6387 0L64.7625 0.020625L64.5975 0.0515625V0.0103125Z" fill="#424143"/>
<path d="M64.7633 0.0214081L64.5983 0.0523456L64.4436 0.0214081L12.8914 9.50891L64.5674 16.9958L64.5983 16.9855L64.6395 16.9958L116.315 9.50891L64.7633 0.0214081Z" fill="#424143"/>
<path d="M117.253 47.3344C116.212 47.3344 115.376 48.18 115.376 49.2113V57.2859C115.376 57.7837 115.574 58.2611 115.926 58.6131C116.278 58.9651 116.755 59.1628 117.253 59.1628C117.751 59.1628 118.228 58.9651 118.58 58.6131C118.932 58.2611 119.13 57.7837 119.13 57.2859V49.2113C119.13 48.18 118.295 47.3344 117.253 47.3344Z" fill="#FBC11B"/>
<path d="M113.499 47.3344C112.458 47.3344 111.622 48.18 111.622 49.2113V57.2859C111.622 57.7837 111.82 58.2611 112.172 58.6131C112.524 58.9651 113.002 59.1628 113.499 59.1628C113.997 59.1628 114.475 58.9651 114.827 58.6131C115.178 58.2611 115.376 57.7837 115.376 57.2859V49.2113C115.376 48.18 114.541 47.3344 113.499 47.3344Z" fill="#FBC11B"/>
<path d="M114.696 47.3344C113.654 47.3344 112.819 48.18 112.819 49.2113V57.2859C112.819 57.7837 113.016 58.2611 113.368 58.6131C113.72 58.9651 114.198 59.1628 114.696 59.1628C115.193 59.1628 115.671 58.9651 116.023 58.6131C116.375 58.2611 116.572 57.7837 116.572 57.2859V49.2113C116.572 48.18 115.737 47.3344 114.696 47.3344Z" fill="#E49500"/>
<path d="M116.129 47.3344C115.088 47.3344 114.252 48.18 114.252 49.2113V57.2859C114.252 58.3275 115.098 59.1628 116.129 59.1628C117.16 59.1628 118.006 58.3172 118.006 57.2859V49.2113C118.006 48.18 117.171 47.3344 116.129 47.3344Z" fill="#E49500"/>
<path d="M115.376 47.3344C114.335 47.3344 113.499 48.18 113.499 49.2113V59.0288C113.499 59.5265 113.697 60.0039 114.049 60.3559C114.401 60.7079 114.878 60.9056 115.376 60.9056C115.874 60.9056 116.351 60.7079 116.703 60.3559C117.055 60.0039 117.253 59.5265 117.253 59.0288V49.2113C117.253 48.18 116.418 47.3344 115.376 47.3344Z" fill="#FBC11B"/>
<path d="M115.376 48.9225C116.55 48.9225 117.501 47.9714 117.501 46.7981C117.501 45.6249 116.55 44.6738 115.376 44.6738C114.203 44.6738 113.252 45.6249 113.252 46.7981C113.252 47.9714 114.203 48.9225 115.376 48.9225Z" fill="#E49500"/>
<path d="M115.376 48.3759C116.55 48.3759 117.501 47.4248 117.501 46.2516C117.501 45.0783 116.55 44.1272 115.376 44.1272C114.203 44.1272 113.252 45.0783 113.252 46.2516C113.252 47.4248 114.203 48.3759 115.376 48.3759Z" fill="#FBC11B"/>
<path d="M114.448 9.74532V45.7875H114.469C114.51 46.2619 114.902 46.6434 115.387 46.6434C115.871 46.6434 116.263 46.2722 116.304 45.7875H116.325V9.74532H114.448Z" fill="#262626"/>
</svg>
