<svg width="132" height="132" viewBox="0 0 132 132" fill="none" xmlns="http://www.w3.org/2000/svg">
<path d="M110 95.3333C110 99.2232 108.455 102.954 105.704 105.704C102.954 108.455 99.2232 110 95.3333 110H29.5C25.6102 110 16.7505 98.7505 14 96C11.2495 93.2495 0 79.3898 0 75.5V14.6667C0 10.7768 1.54523 7.0463 4.29577 4.29577C7.0463 1.54523 10.7768 0 14.6667 0L95.3333 0C99.2232 0 102.954 1.54523 105.704 4.29577C108.455 7.0463 110 10.7768 110 14.6667V95.3333Z" fill="#D99E82"/>
<path d="M102.667 95.3333C102.667 97.2783 101.894 99.1435 100.519 100.519C99.1435 101.894 97.2782 102.667 95.3333 102.667H20.5C18.5551 102.667 15.3752 97.3753 14 96C12.6247 94.6247 7.33331 89.9449 7.33331 88V14.6667C7.33331 12.7217 8.10593 10.8565 9.4812 9.48121C10.8565 8.10594 12.7217 7.33333 14.6666 7.33333H95.3333C97.2782 7.33333 99.1435 8.10594 100.519 9.48121C101.894 10.8565 102.667 12.7217 102.667 14.6667V95.3333Z" fill="#5C913B"/>
<path d="M27.555 32.626C27.2617 32.978 26.8803 33.506 26.8803 34.122C26.8803 35.4713 27.8777 36.058 29.1683 36.058H38.9583C40.073 36.058 41.0703 35.4713 41.0703 34.122C41.0703 32.7727 40.0767 32.186 38.7823 32.186H33.418C35.9077 29.051 40.4543 25.0067 40.4543 20.9293C40.4543 17.2077 37.5503 14.8317 33.946 14.8317C30.3417 14.8317 27.0563 17.7907 27.0563 21.4867C27.0563 22.627 27.7897 23.6243 29.1977 23.6243C32.0137 23.6243 30.4003 18.876 33.77 18.876C34.9727 18.876 35.882 19.932 35.882 21.1347C35.882 22.1907 35.3833 23.1 34.8553 23.8627C32.626 27.0857 29.9897 29.7257 27.555 32.626ZM22.7627 52.547H18.513V48.2937C18.513 47.2377 17.8383 46.5373 16.753 46.5373C15.6713 46.5373 14.9967 47.2413 14.9967 48.2937V52.547H10.747C9.66167 52.547 8.987 53.251 8.987 54.3033C8.987 55.3593 9.66167 56.0633 10.747 56.0633H14.9967V60.313C14.9967 61.369 15.6713 62.0693 16.753 62.0693C17.8383 62.0693 18.513 61.369 18.513 60.313V56.0633H22.7627C23.848 56.0633 24.5227 55.3593 24.5227 54.3033C24.5227 53.251 23.848 52.547 22.7627 52.547ZM38.7823 57.8527H33.4143C35.9077 54.7177 40.4507 50.6733 40.4507 46.596C40.4507 42.8743 37.5467 40.4983 33.9423 40.4983C30.338 40.4983 27.0527 43.461 27.0527 47.1533C27.0527 48.2937 27.786 49.291 29.1903 49.291C32.0063 49.291 30.393 44.5427 33.7663 44.5427C34.969 44.5427 35.8783 45.5987 35.8783 46.8013C35.8783 47.8573 35.3797 48.7667 34.8517 49.5293C32.6223 52.7523 29.986 55.3923 27.5513 58.2963C27.258 58.6483 26.8767 59.1763 26.8767 59.7923C26.8767 61.1417 27.874 61.7283 29.1647 61.7283H38.9547C40.0693 61.7283 41.0667 61.1417 41.0667 59.7923C41.0667 58.4393 40.073 57.8527 38.7823 57.8527ZM41.8623 69.5567H11.3043C10.8181 69.5567 10.3518 69.3635 10.008 69.0197C9.66415 68.6759 9.471 68.2096 9.471 67.7233C9.471 67.2371 9.66415 66.7708 10.008 66.427C10.3518 66.0832 10.8181 65.89 11.3043 65.89H41.8587C42.3449 65.8895 42.8114 66.0822 43.1556 66.4257C43.4997 66.7691 43.6933 67.2353 43.6938 67.7215C43.6943 68.2077 43.5016 68.6742 43.1582 69.0184C42.8147 69.3626 42.3486 69.5562 41.8623 69.5567Z" fill="white"/>
<path d="M120 120L130 115.5C128 112 129 113.5 125.556 109.11C121.431 104.985 115.835 102.667 110 102.667H51.3333C45.4985 102.667 39.9028 104.985 35.777 109.11C31.6512 113.236 32.5 112 33.5 113L46 120L66 126L76.5 127L87 127.5L104 125.5L120 120Z" fill="#CCD6DD"/>
<path d="M80.9343 112.952C80.9343 112.952 93.0233 116.219 97.5993 117.744C98.186 117.938 94.1123 110.015 94.1123 110.015H66.7847C66.7847 110.015 64.295 115.669 62.8577 118.07C70.0443 115.782 80.4503 112.625 80.4503 112.625" fill="#99AAB5"/>
<path d="M64.6801 103.037C67.5181 105.098 69.1021 109.065 73.1134 110.044C74.3087 112.618 75.8487 116.039 77.2274 119.123C78.5291 122.038 82.6761 121.994 83.9191 119.049C85.2207 115.969 86.6874 112.57 87.8571 110.044C91.9087 108.409 93.7641 105.134 96.6534 103.037V89.0634H64.6801V103.037Z" fill="#F7DECE"/>
<path d="M64.6506 95.2343C69.1093 100.272 74.6386 101.636 80.652 101.636C86.6616 101.636 92.1873 100.269 96.6496 95.2343V82.434H64.647V95.2343H64.6506Z" fill="#EEC2AD"/>
<path d="M94.347 12.1843C87.2887 9.89998 70.6787 10.5233 66.5244 15.9206C55.7297 16.1296 43.065 25.8866 41.404 38.7566C39.7614 51.4983 43.4244 57.4127 44.726 66.9937C46.2037 77.847 52.305 81.3193 57.1817 82.7713C64.1997 92.0443 71.6614 91.6483 84.1904 91.6483C108.654 91.6483 120.307 75.2803 121.337 47.476C121.961 30.6643 112.094 17.9263 94.347 12.1843Z" fill="#292F33"/>
<path d="M108.339 48.6677C105.97 45.3897 102.942 42.7497 96.2977 41.8183C98.791 42.9587 101.178 46.904 101.49 49.0857C101.801 51.2673 102.113 53.031 100.14 50.8493C92.2387 42.1153 83.633 45.5547 75.108 40.2197C69.1534 36.4943 67.3384 32.3693 67.3384 32.3693C67.3384 32.3693 66.6124 37.8693 57.5814 43.4757C54.9634 45.1 51.8394 48.719 50.1087 54.065C48.862 57.9077 49.2507 61.3323 49.2507 67.1843C49.2507 84.271 63.3344 98.637 80.7034 98.637C98.0723 98.637 112.156 84.1427 112.156 67.1843C112.149 56.5583 111.038 52.404 108.339 48.6677Z" fill="#FADCBC"/>
<path d="M84.1904 75.9257H77.2017C76.7378 75.9257 76.293 75.7414 75.965 75.4134C75.637 75.0854 75.4527 74.6405 75.4527 74.1767C75.4527 73.7128 75.637 73.2679 75.965 72.9399C76.293 72.6119 76.7378 72.4277 77.2017 72.4277H84.1904C84.6542 72.4277 85.0991 72.6119 85.4271 72.9399C85.7551 73.2679 85.9393 73.7128 85.9393 74.1767C85.9393 74.6405 85.7551 75.0854 85.4271 75.4134C85.0991 75.7414 84.6542 75.9257 84.1904 75.9257Z" fill="#C1694F"/>
<path d="M66.715 63.69C65.7883 63.69 64.8995 63.3218 64.2442 62.6665C63.5889 62.0112 63.2207 61.1224 63.2207 60.1957V56.7013C63.2207 55.7746 63.5889 54.8858 64.2442 54.2305C64.8995 53.5752 65.7883 53.207 66.715 53.207C67.6418 53.207 68.5306 53.5752 69.1859 54.2305C69.8412 54.8858 70.2094 55.7746 70.2094 56.7013V60.1957C70.2099 60.6547 70.1198 61.1093 69.9444 61.5335C69.7689 61.9576 69.5115 62.343 69.187 62.6676C68.8624 62.9922 68.477 63.2496 68.0528 63.425C67.6287 63.6004 67.1741 63.6905 66.715 63.69ZM94.677 63.69C93.7503 63.69 92.8615 63.3218 92.2062 62.6665C91.5509 62.0112 91.1827 61.1224 91.1827 60.1957V56.7013C91.1827 55.7746 91.5509 54.8858 92.2062 54.2305C92.8615 53.5752 93.7503 53.207 94.677 53.207C95.6038 53.207 96.4926 53.5752 97.1479 54.2305C97.8032 54.8858 98.1714 55.7746 98.1714 56.7013V60.1957C98.1714 61.1224 97.8032 62.0112 97.1479 62.6665C96.4926 63.3218 95.6038 63.69 94.677 63.69Z" fill="#662113"/>
<path d="M81.1581 90.5153C71.0601 90.5153 67.9581 87.9303 67.4411 87.406C67.2123 87.1888 67.0286 86.9287 66.9004 86.6406C66.7722 86.3524 66.702 86.0418 66.6939 85.7265C66.6774 85.0898 66.9145 84.4726 67.3531 84.0107C67.7916 83.5487 68.3958 83.28 69.0325 83.2635C69.6693 83.247 70.2865 83.4841 70.7484 83.9227C70.9391 84.0583 73.3921 85.7083 81.1581 85.7083C89.2247 85.7083 91.5567 83.93 91.5787 83.9117C91.8003 83.692 92.0635 83.5189 92.353 83.4025C92.6424 83.2861 92.9522 83.2288 93.2641 83.2339C93.5761 83.2391 93.8838 83.3065 94.1693 83.4324C94.4548 83.5582 94.7122 83.7398 94.9264 83.9666C95.3706 84.4321 95.6142 85.0535 95.6046 85.6968C95.595 86.3402 95.333 86.954 94.8751 87.406C94.3544 87.9303 91.2561 90.5153 81.1581 90.5153Z" fill="#C1694F"/>
<path d="M63.173 97.6397C65.2447 99.715 73.1097 110.044 73.1097 110.044C73.1097 110.044 68.7537 112.592 63.547 117.392C61.655 119.137 58.597 117.594 58.828 115.031C59.2717 110.084 59.741 104.364 59.653 102.073C59.6127 100.962 62.183 96.6423 63.173 97.6397ZM97.7607 97.6397C95.689 99.715 87.824 110.044 87.824 110.044C87.824 110.044 92.18 112.592 97.3867 117.392C99.2787 119.137 102.337 117.594 102.106 115.031C101.662 110.084 101.193 104.364 101.281 102.073C101.325 100.962 98.7544 96.6423 97.7607 97.6397Z" fill="#F5F8FA"/>
</svg>
