<svg width="94" height="94" viewBox="0 0 94 94" fill="none" xmlns="http://www.w3.org/2000/svg">
<g filter="url(#filter0_d)">
<circle cx="47" cy="45" r="45" fill="white"/>
<circle cx="47" cy="45" r="44.85" stroke="#85BE4F" stroke-opacity="0.15" stroke-width="0.3"/>
</g>
<path d="M57.2691 17H58.313C59.5808 17.3108 60.0692 18.129 59.8407 19.4272C59.6953 20.3368 59.7105 21.2657 59.8855 22.1698C60.0773 22.4689 60.3452 22.709 60.6605 22.8646C60.8049 22.9593 60.9125 23.1024 60.9648 23.2692C61.0171 23.436 61.0109 23.6162 60.9473 23.7788C60.4993 24.3685 59.7914 24.5011 59.1552 24.7388C59.0343 24.8027 58.8282 24.6885 58.7744 24.9216C58.8873 24.9449 58.9914 25.0004 59.0746 25.0816C59.3792 25.8906 58.5952 26.3889 58.5325 27.0928C58.4347 27.3795 58.3974 27.6841 58.4228 27.9866C58.4483 28.289 58.5361 28.5826 58.6803 28.8481C59.1284 29.68 58.5415 29.904 57.865 30C57.4333 29.9759 57.0233 29.7998 56.7046 29.5018C55.3606 28.551 56.0147 26.8323 55.2665 25.6484C54.6304 23.4177 55.2665 21.2968 55.7862 19.1621C55.6727 18.9382 55.6085 18.6917 55.598 18.4399C55.6046 18.0055 55.7765 17.5908 56.0774 17.2834C56.4537 17.0869 56.9376 17.3703 57.2691 17Z" fill="#EB6019"/>
<path d="M43.2671 11.6131C45.0071 9.76538 47.1472 9.04462 49.6136 9.11014C49.6593 9.06938 49.7131 9.03875 49.7714 9.02026C49.8297 9.00178 49.8912 8.99585 49.952 9.00285C50.0127 9.00986 50.0713 9.02965 50.1239 9.06094C50.1765 9.09222 50.222 9.13428 50.2573 9.1844C52.0234 9.95321 53.7677 10.6128 54.99 12.3557C55.4888 13.022 55.8157 13.8018 55.9417 14.6257C56.0677 15.4496 55.9888 16.292 55.7121 17.0778C55.7715 17.1907 55.7958 17.319 55.7819 17.4459C55.7679 17.5729 55.7163 17.6927 55.6338 17.7898C54.6159 18.266 54.0939 17.9296 53.9808 16.8157C53.8784 15.4048 53.3791 14.052 52.541 12.9149C51.5666 11.7136 50.3661 11.1676 48.8175 11.6044C48.3109 11.7443 47.8663 12.0522 47.5561 12.4781C47.4586 12.5992 47.354 12.7144 47.2429 12.8231C46.9862 13.0678 46.6252 13.4041 46.3425 13.225C45.3159 12.596 44.1327 12.9236 43.0757 12.5567C43.0026 12.3996 42.9817 12.2231 43.0162 12.0532C43.0507 11.8833 43.1386 11.729 43.2671 11.6131Z" fill="#F18922"/>
<path d="M59.5587 22.997C58.9933 21.8582 58.6367 20.7292 59.1767 19.4438C59.6504 18.3196 58.8405 17.6305 58 17C60.3584 17.1662 61.4128 18.4663 60.8525 20.5728C60.6313 21.24 60.3659 21.893 60.0579 22.5278C60.0645 22.5918 60.056 22.6564 60.033 22.7169C60.0101 22.7774 59.9734 22.8321 59.9255 22.8771C59.8776 22.9222 59.8197 22.9563 59.7563 22.977C59.6928 22.9978 59.6253 23.0046 59.5587 22.997Z" fill="#ED8122"/>
<path d="M62.9403 23.6069C63.1605 24.6396 62.7442 25.3654 62.1422 26C61.6502 25.4318 61.5436 24.6355 61.2993 23.9262L61 23.3166C61.5539 23.047 62.1112 22.7649 62.6651 23.3166L62.9403 23.6069Z" fill="#EB8022"/>
<path d="M56 17.8549C56.0182 17.5699 56.0395 17.285 56.0608 17L57 17.3109C56.8146 17.8937 56.5289 17.8549 56.2492 17.8678C56.2348 17.9099 56.2157 17.9438 56.1937 17.9668C56.1718 17.9898 56.1475 18.0012 56.123 17.9999C56.0986 17.9986 56.0746 17.9848 56.0532 17.9595C56.0317 17.9343 56.0135 17.8984 56 17.8549Z" fill="#ED6C1C"/>
<path d="M43.1408 34.865L43.0235 34.9149L42.9105 34.8567C42.5715 34.5321 41.9587 34.4198 42.0022 33.7914C42.4368 32.93 42.8714 32.077 42.7453 31.0741C42.69 30.8521 42.7242 30.6182 42.841 30.4192C42.9578 30.2202 43.1487 30.0707 43.3755 30.0005C43.5352 29.9942 43.6912 30.048 43.8101 30.1503C44.4229 30.9534 44.7227 32.1144 46.2351 31.7857C46.4553 31.7343 46.6588 31.6313 46.8271 31.4861C46.9955 31.3408 47.1236 31.1578 47.1999 30.9534C47.3432 30.754 47.5532 30.6072 47.7953 30.5373C48.0908 30.4874 48.4515 30.4707 48.6123 30.6913C49.6901 32.1768 51.2677 32.7719 53.0278 33.0715C53.1712 33.1028 53.3046 33.1668 53.4166 33.2581C53.5286 33.3494 53.6159 33.4653 53.671 33.5958C54.2143 34.349 55.0356 33.8205 55.6962 34.0119C56.1308 34.1368 56.887 33.5958 57 34.503L56.8653 34.5612L56.7175 34.5279C56.0265 34.8775 55.2312 34.4697 54.5445 34.8026L52.502 34.8733C51.1785 35.0667 49.8301 35.0385 48.5167 34.7901C46.7088 34.4572 44.94 34.9566 43.1408 34.865Z" fill="#F49C0E"/>
<path d="M53.4769 33.8451C52.787 33.8859 52.1174 33.3916 51.403 33.7816C51.1743 33.9086 50.6844 33.8315 50.7049 33.573C50.8518 31.9132 50.17 32.7431 49.5372 32.988C49.0106 33.1966 48.9044 32.7748 49.0473 32.2488C49.2759 31.4008 48.9003 31.0017 48.1736 30.8883C47.6878 29.8861 48.3084 29.351 48.9657 29.0744C49.8761 28.7207 49.7536 29.7138 49.9781 30.2625C50.3864 31.301 51.0764 31.7046 52.0562 31.0969C52.6234 31.3104 53.2355 31.3278 53.8117 31.1468C54.6282 31.1468 55.5917 30.7614 56 32.0266C55.9306 33.31 54.8405 33.3009 54.1587 33.8133L54.0526 33.8723H53.9383C53.9116 33.914 53.8758 33.9475 53.8343 33.9698C53.7928 33.992 53.7469 34.0023 53.7009 33.9996C53.6549 33.9969 53.6102 33.9813 53.5711 33.9543C53.5319 33.9272 53.4995 33.8897 53.4769 33.8451Z" fill="#F6A514"/>
<path d="M55.8296 32.5457C55.2378 31.1333 54.0166 32.0879 53.1289 31.7713C53.078 31.7028 53.0409 31.6244 53.0199 31.5407C52.999 31.457 52.9945 31.3698 53.0068 31.2843C53.3966 28.849 55.2378 29.0438 56.9381 29L58.0795 29.3945C58.6337 30.0179 59.2913 28.8247 59.8408 29.5065L59.9535 29.7257L59.9817 30.2127C60.1884 32.7503 58.6337 33.627 55.8296 32.5457Z" fill="#E74517"/>
<path d="M55.7553 32.3673C56.1783 32.2205 56.6194 32.1543 57.0612 32.1713C58.6881 32.5879 59.3688 31.6811 59.54 30C60.4519 31.5586 59.9468 32.5977 58.5639 33.1907C57.1085 33.8201 55.5527 34.0875 54 33.9749C54.4281 33.1956 55.1431 32.8574 55.7553 32.3673Z" fill="#DD3516"/>
<path d="M43 34.5791C46.3318 33.4959 49.6636 34.1933 53 34.5791L51.7813 34.8411C51.4906 34.9402 51.1769 34.9941 50.8587 34.9995C50.5404 35.005 50.2239 34.962 49.9277 34.8729H45.0111L43 34.5791Z" fill="#F19513"/>
<path d="M62.1975 27C63.0631 27.3675 63.0232 28.2249 62.9832 29.0823C62.1975 30.4509 61.0477 29.8864 60 29.8757C60.3907 28.5391 61.8778 28.4059 62.1975 27Z" fill="#E77920"/>
<path d="M54 34L54.4079 34.0397C54.9964 34.7697 55.769 34.2777 56.4513 34.4087C56.9603 34.5079 57.5343 34.3293 58 34.738C57.6787 35.1347 57.278 34.9641 56.917 34.9602C56.3791 34.4166 55.7184 34.7221 55.1119 34.6547C54.6606 34.5872 54.1155 34.7459 54 34Z" fill="#EE9E15"/>
<path d="M28 21.4434C28.9861 19.6539 30.7871 19.7185 32.6197 19.697C32.309 18.5931 31.449 17.7911 31.4085 16.6786C31.359 15.3332 32.3991 14.8244 33.2816 14.1646C33.902 14.0186 34.5514 14.0293 35.1662 14.1956C35.781 14.3619 36.3402 14.6781 36.7892 15.1133C37.1539 14.0008 36.9648 12.8064 37.9239 12C39.0675 12.7891 38.8919 13.9922 39 15.109C38.6263 15.9455 38.4011 16.9157 37.1449 16.9287C36.4245 16.8683 35.6725 16.4716 35.0061 17.0882C34.5559 17.6876 34.6324 18.3818 34.5784 19.0502C34.5087 19.8497 34.2458 20.6227 33.8106 21.3082C33.3753 21.9937 32.7796 22.5729 32.0704 23C30.8907 22.0039 29.2112 22.3101 28 21.4434Z" fill="#F08720"/>
<path d="M38.0004 12.0741C40.0329 11.6167 40.351 13.3685 40.917 14.8183C41.0029 15.0012 41.023 15.2134 40.9732 15.4121C40.9233 15.6107 40.8073 15.781 40.6484 15.8886C40.2121 16.0474 39.7397 16.0361 39.3099 15.8566C38.4537 14.8268 37.9853 13.4737 38.0004 12.0741Z" fill="#F39223"/>
<path d="M38.395 12.0327L39.7794 15.7322C39.8886 15.8242 39.9673 15.9643 40 16.1256C39.5409 18.093 39.0961 16.1256 38.6406 16.1256C38.6114 16.095 38.5882 16.0562 38.5727 16.0123C38.5573 15.9683 38.5501 15.9204 38.5516 15.8724C38.5516 15.7774 38.5694 15.7322 38.5836 15.7322C38.3915 14.6015 38.1969 13.4724 38 12.3448C38.0676 12.1005 38.1637 11.9242 38.395 12.0327Z" fill="#FBE01C"/>
<path d="M43.9944 12V12.8177C44.0253 13.0738 43.9274 13.3294 43.7167 13.5433C43.5059 13.7572 43.1946 13.9168 42.8331 13.9964C42.6924 14.0073 42.55 13.9935 42.4195 13.9564C42.289 13.9193 42.1749 13.8601 42.0882 13.7845L42 13.6024L43.2496 12.3178C43.2518 12.2503 43.2911 12.1857 43.36 12.1367C43.4289 12.0878 43.5223 12.0579 43.622 12.053C43.7347 12.0331 43.8621 12.0132 43.9944 12Z" fill="#E89920"/>
<path d="M41 15.5273L41.1894 14.7581L41.7217 14L41.7608 14.1072C41.8932 14.3071 41.9747 14.5506 41.995 14.8071C42.0153 15.0637 41.9736 15.322 41.8751 15.5495C41.5804 15.849 41.2736 16.4037 41 15.5273Z" fill="#F2AA1A"/>
<path d="M57 28.8839C56.9087 28.9535 56.8265 29.0667 56.7216 29.0929C55.3887 29.4194 53.9464 29.5631 53.2937 31C53.0424 30.9656 52.8014 30.8817 52.5861 30.7535C52.3707 30.6253 52.1858 30.4557 52.043 30.2554C51.9643 29.7543 51.9938 29.2431 52.1297 28.7532C52.4949 27.6603 52.7414 26.5239 53.4397 25.5573C53.6243 25.3358 53.8718 25.1697 54.1526 25.0786C54.4334 24.9875 54.7357 24.9753 55.0236 25.0435C55.2024 25.1201 55.3685 25.2214 55.5166 25.3439C55.973 25.4092 56.6896 25.283 56.4294 26.0101C55.9958 27.1248 56.4979 27.9826 57 28.8839Z" fill="#E84F17"/>
<path d="M55.6914 25H55.3378C54.9843 24.7356 54.4648 24.8406 54.1156 24.5335C53.8363 24.3118 53.5787 24.0708 53.2819 23.8686C52.649 23.3204 51.7978 23.9308 51.1387 23.5459C50.7982 22.9355 51.1387 22.4845 51.5752 22.0452C51.92 21.9247 52.2387 22.1463 52.5792 22.1113C52.8061 22.1618 52.7057 21.8119 52.6708 22.0219C52.6708 22.0919 52.5573 22.1346 52.422 22.0919C52.0772 21.983 51.549 21.9908 51.7978 21.4348C52.0476 21.2363 52.3669 21.1209 52.7014 21.1082C54.6351 21.4465 53.5744 20.1324 53.8057 19.5259C54.5827 18.5383 55.5168 19.2265 56.3985 19.3237C56.6997 19.3626 57.1537 19.5531 56.9485 19.7475C55.3204 21.291 56.0799 23.2505 55.6914 25Z" fill="#EC691B"/>
<path d="M61.9558 27.1209C62.2797 29.2469 60.7479 29.2895 59.8025 29.9964C59.2642 29.534 58.5289 30.48 58.0519 29.6296C58.2576 29.518 58.7915 29.6031 58.4895 29.0981C57.8855 28.1414 57.8155 27.7374 58.4195 26.5947C59.2948 25.4041 60.3671 26.4087 61.3256 26.1801L61.9558 27.1209Z" fill="#E85B16"/>
<path d="M61.2958 26.6781C60.3175 27.2724 59.1927 26.7937 58.1577 27C57.5858 26.1747 58.739 25.9106 58.928 25.3494C59.0037 25.2521 59.112 25.1776 59.2381 25.1363C59.3642 25.0949 59.5019 25.0886 59.6322 25.1183H59.6889L59.5802 25.0729C59.4407 25.0509 59.3084 25.0026 59.1924 24.9313C59.0765 24.8601 58.9798 24.7675 58.9091 24.6602C59.4811 24.3042 60.1452 24.0773 60.8421 24C62.3639 24.2105 61.8677 25.2751 62 26.0633L61.2958 26.6781Z" fill="#E95A1D"/>
<path d="M55.685 17.8197H55.9995C55.9995 18.2002 56.0264 18.5934 55.6773 18.8471C55.2478 19.2361 54.8412 18.7541 54.4193 18.8048C52.9963 18.1706 53.495 16.729 53.2955 15.579C53.3646 14.7588 52.8276 14.0062 53.0577 13.1607L53.2035 13C54.2966 13.9766 54.4922 15.3972 54.5804 16.7755C54.6418 17.7183 54.9639 17.9297 55.685 17.8197Z" fill="#EC671C"/>
<path d="M59.9126 24.8009H59.1654L58 25C58.2583 24.0521 58.7134 24.0521 59.1654 24L59.9157 24.4076C59.9895 24.4929 60.0171 24.5829 59.9895 24.6682C59.9618 24.7536 59.9372 24.8009 59.9126 24.8009Z" fill="#EF7E23"/>
<path d="M54.2033 18L55.6353 18.3315L56 18.6629C55.2173 19.1458 54.2211 18.2905 53.4784 18.9944C53.0737 19.0394 52.9269 18.8062 53.0337 18.5115C53.1849 17.9714 53.7852 18.135 54.2033 18Z" fill="#EF8222"/>
<path d="M42.2458 14.1686C42.6138 13.6773 42.9865 13.1905 43.3545 12.7037C44.2747 12.035 45.1627 11.5573 46.115 12.64C46.7269 13.3361 47.0582 12.64 47.4676 12.3353C48.282 12.8675 49.2435 13.1678 49.9336 13.8956C50.1223 14.5234 49.8646 15.0966 49.7082 15.6789C49.3954 16.3931 49.2895 17.1983 48.7881 17.8398C48.6598 17.9639 48.5013 18.0532 48.328 18.0991C47.325 17.8853 46.8603 19.2045 45.8482 18.9725C45.5445 17.6305 44.4679 17.2074 43.2947 16.9345C42.6736 16.6251 42.4896 15.9928 42.1768 15.456C42.0295 15.0193 41.8363 14.5825 42.2458 14.1686Z" fill="#ED711C"/>
<path d="M49.8625 14C49.0484 13.8468 48.2112 13.7354 48 12.4914C48.4416 12.1525 48.818 11.7162 49.2442 11.3541C50.9724 10.616 51.9055 10.992 53 12.8581C52.4233 13.4334 51.7044 13.7601 50.957 13.7865C50.7998 13.7076 50.6318 13.6651 50.4616 13.6611C50.2805 13.817 50.0775 13.9318 49.8625 14Z" fill="#EC671C"/>
<path d="M49 11C48.9201 11.2731 48.7842 11.5114 48.6075 11.688C48.4309 11.8647 48.2205 11.9727 48 12C48.084 11.7304 48.221 11.4955 48.3969 11.3196C48.5727 11.1438 48.781 11.0334 49 11Z" fill="#ED711C"/>
<path d="M42.2835 33.781L43 35L39.4835 34.898C39.2198 34.8349 39.0088 34.7135 39 34.3638C40.011 33.7179 40.8945 32.0084 42.2835 33.781Z" fill="#F19513"/>
<path d="M42.355 34.1388C41.0659 33.3749 40.1977 34.5186 39.1454 34.825C38.6411 35.1617 38.3517 35.002 38.2465 34.4366C38.3167 33.4698 37.1898 34.005 36.9311 33.4353C36.4926 33.1116 35.9094 33.1677 35.4666 32.8656C34.8483 32.5246 34.1205 32.3908 33.5548 31.942C33.2391 31.6658 32.8752 31.4111 33.0418 30.9062C33.3523 30.5974 33.7608 30.4024 34.1994 30.3537C35.0018 30.2501 35.6551 30.7163 36.3918 30.9018C37.3739 31.1478 38.2947 32.1276 39.3865 31.1565C40.1276 30.6817 40.873 30.3667 41.5789 31.1565C41.652 31.245 41.7472 31.3134 41.8551 31.355C41.7236 31.1608 41.4912 31.027 41.4737 30.7594C41.6211 30.1097 41.5801 29.4322 41.3553 28.8043C41.3302 28.5665 41.3993 28.3284 41.5482 28.1396C42.4602 27.7987 43.1574 28.1008 43.7099 28.8431C43.951 29.3049 44.1922 29.7754 43.7669 30.2631C43.0522 30.5307 43.3898 31.0702 43.3766 31.5579C43.3591 32.5376 43.5608 33.6252 42.355 34.1388Z" fill="#F6A514"/>
<path d="M43.3743 30.113C43.2465 29.6093 43.1232 29.1056 43 28.5972C43.8124 28.1728 44.6842 28.3873 45.5285 28.3733C45.9576 28.3733 46.4414 28.5552 46.8065 28.4013C48.2442 27.8136 49.513 27.7763 50.7636 28.9377C51.3615 29.4973 52.2469 29.1522 53 28.9796C52.8996 29.4833 52.7946 29.9917 52.6896 30.4954C52.8174 30.9105 52.612 31.1251 52.256 31.2463C51.4345 31.4795 51.9731 32.3424 51.5212 33C51.0922 32.3517 51.0922 31.0784 49.8918 31.8853C49.5769 32.0952 49.3396 31.5402 49.3213 31.1437C49.2848 30.5421 49.2666 29.9404 49.23 29.1289C48.4313 29.5953 47.8608 30.0244 47.8197 30.8686L47.45 31.2463C44.9032 32.3144 44.3327 32.1558 43.3743 30.113Z" fill="#F8AD14"/>
<path d="M44.0079 30C44.9013 32.2956 46.6881 30.8144 47.9969 31.2369C48.0505 32.1734 47.3939 33.1965 46.9427 32.9675C46.2369 32.6112 44.9951 33.7462 44.7092 31.9495C44.611 31.3438 43.9186 30.8246 44.0079 30Z" fill="#F6A514"/>
<path d="M52 31.0119C52.1951 30.6725 52.3902 30.3394 52.5793 30C53.2988 30 53.939 30.0629 54 31.0119C54 31.1942 54 31.3765 54 31.5524C53.1524 32.0993 52.3719 32.3695 52 31.0119Z" fill="#E34216"/>
<path d="M55.4924 30L56 30.7045C55.8528 30.8134 55.6701 31.0439 55.5736 30.9927C55.3629 30.8464 55.1698 30.6631 55 30.4483L55.4924 30Z" fill="#E84F17"/>
<path d="M27 24.4904C27.0751 23.9025 27.1458 23.3103 27.2164 22.7224L27.7951 22.0024C29.3101 22.0621 30.9974 21.6531 31.8896 23.4041C33.1749 23.5319 33.8419 24.5501 34.4337 25.3851C35.2032 26.4451 36.0615 27.4425 37 28.3672C36.333 29.3684 35.379 29.0233 34.9196 28.4183C34.0362 27.2596 33.2809 27.4555 32.0265 27.8773C29.8666 28.5973 27.5654 26.8889 27 24.4904Z" fill="#EA5B19"/>
<path d="M38.0944 16C38.1559 16.0848 38.2091 16.1741 38.2536 16.267C39.46 17.6883 39.7013 19.4196 40.2466 21.0562C40.5465 22.3306 40.9219 23.59 41.371 24.829C41.5255 25.7334 42.0322 26.5775 41.9984 27.5164C41.9543 27.6741 41.8585 27.8166 41.7233 27.9256C40.3239 28.3046 39.5952 27.1288 38.4949 26.8144C38.331 26.7794 38.1697 26.7348 38.0123 26.6809C37.6509 26.5029 37.3249 26.273 37.0472 26.0004C36.7432 25.6688 36.1062 25.6473 36 25.1391C36.5212 24.1485 36.4247 23.0718 36.555 22.0295C36.6032 21.2888 37.6794 21.1682 37.7421 20.4102C37.6697 20.0829 37.5008 19.7642 37.7421 19.4239C37.496 19.7771 37.771 20.1905 37.5249 20.5351C37.3885 20.6371 37.2198 20.6989 37.0424 20.7117C35.2954 19.8761 36.5019 18.4807 36.2413 17.361C37.5153 17.6194 37.3078 16.2627 38.0944 16Z" fill="#ED721C"/>
<path d="M36.6575 27.8598C36.3541 27.913 36.0416 27.8687 35.7649 27.733C35.4882 27.5974 35.2615 27.3775 35.1173 27.1048C34.384 25.5374 33.0323 24.4952 32 23.1903C32.6431 22.3369 32.6185 21.0813 33.7327 20.4904C34.1219 20.2812 33.7041 19.7806 33.7 19.4154C33.7 18.6235 33.3559 17.7208 34.3267 17.1997C34.9125 17.0848 35.49 16.7196 36.0226 17.4089C36.5551 18.0983 35.9529 18.4265 35.8464 18.9476C35.404 21.1428 34.5479 23.416 36.4404 25.4061C36.8014 25.5653 37.1505 25.7504 37.4849 25.96C37.6997 26.0963 37.8638 26.2996 37.9519 26.5386C37.9962 26.7113 38.01 26.8904 37.9929 27.0679C37.7963 27.7244 37.4972 28.266 36.6575 27.8598Z" fill="#EC661B"/>
<path d="M36.2236 26C34.9084 25.3699 34.4881 24.1874 34.5062 23.0417C34.5243 21.8961 34.9581 20.7259 34.5062 19.572C34.2938 19.036 35.2338 19.4657 35.1615 18.6514C35.0666 17.5671 35.4462 17.3994 34 17.3667C34.308 17.1299 34.6988 17 35.1028 17C35.5067 17 35.8976 17.1299 36.2055 17.3667C37.3851 18.185 36.0699 19.4902 36.9377 20.3658C37.132 20.7382 36.8292 20.9468 36.6123 21.1841C36.2598 21.5933 36.7479 21.5565 36.9377 21.6833C36.906 22.8372 37.2586 24.0565 36.2191 25.0303C36.3385 25.1335 36.4258 25.2633 36.4722 25.4067C36.4901 25.5166 36.4767 25.6288 36.4332 25.7327C36.3897 25.8365 36.3175 25.9285 36.2236 26Z" fill="#EC6A1C"/>
<path d="M44.0521 16.3627C44.5769 16.4174 44.6481 15.8706 44.9639 15.6246C45.293 16.0802 44.9283 16.7317 45.5243 17.2147C45.7734 16.8411 45.8135 15.9754 46.4851 16.2807C47.1567 16.5859 46.8276 17.1919 46.6719 17.7022C46.6105 17.9944 46.5763 18.2918 46.5696 18.5906C46.7814 18.7904 46.9244 19.0549 46.9773 19.3448C47.0302 19.6346 46.9902 19.9342 46.8632 20.1989C46.5029 20.8276 45.9736 20.7411 45.4487 20.4996C44.2567 19.9392 43.6384 20.4631 43.3093 21.6113C43.2201 21.7687 43.0949 21.9015 42.9445 21.9985C42.8109 22.007 42.6775 21.979 42.558 21.9173C42.4384 21.8557 42.337 21.7627 42.264 21.6477C41.6013 19.6157 40.2135 17.8616 40.04 15.6337C40.04 15.5244 40.0178 15.415 40 15.3102C40.3514 14.7271 40.7473 15.1189 41.1298 15.2601C41.4812 15.7841 41.8414 15.3831 42.2017 15.2601C42.2607 15.2645 42.3182 15.2808 42.3708 15.3082C42.4235 15.3356 42.4704 15.3735 42.5086 15.4196C42.7177 15.7385 42.9534 15.7795 43.1625 15.5198C43.6117 15.6474 43.505 16.3627 44.0521 16.3627Z" fill="#EF7B1D"/>
<path d="M39.4292 15.4599C40.4064 17.5073 41.5251 19.4961 42 21.7969C41.9644 21.8491 41.9194 21.8932 41.8676 21.9267C41.8159 21.9602 41.7585 21.9823 41.6986 21.9919C41.5484 22.0109 41.396 21.9963 41.2513 21.9491C41.1066 21.9019 40.9727 21.8231 40.858 21.7177C40.7433 21.6122 40.6505 21.4825 40.5853 21.3367C40.5202 21.1909 40.4841 21.0322 40.4795 20.8708C40.6575 20.978 40.1324 21.8457 39.8904 21.7823C39.5434 21.6994 39.6667 21.2217 39.4338 21.0121C38.9559 19.15 38.4779 17.2879 38 15.4258C38.2329 15.4599 38.4566 14.4509 38.6986 15.4258C38.8995 16.3032 39.1461 16.3764 39.4292 15.4599Z" fill="#FCCA09"/>
<path d="M42.8618 15.5931C42.1175 16.5888 42.2528 15.467 42 15.2844L42.0427 14L42.5876 14.1859C42.6873 14.4547 42.7834 14.7268 42.8831 14.999C42.962 15.0817 43.0037 15.1895 42.9997 15.3C42.9958 15.4106 42.9464 15.5155 42.8618 15.5931Z" fill="#F7BB16"/>
<path d="M52.4924 29.1857C51.6978 30.3235 50.078 30.2638 49.2088 29.0389C48.8138 28.4838 48.726 28.4792 47.9753 28.8371C46.4082 29.5848 44.582 29.2637 42.8744 28.8095C42.4003 28.3187 41.7419 28.2865 41.1624 28.0526C41.117 28.0349 41.0775 28.0038 41.0486 27.9631C41.0198 27.9224 41.0029 27.8738 41 27.8232C41 27.7223 41 27.6718 41.0439 27.6718H41.158C41.2063 26.8047 41.4126 26.1395 42.475 26.3781C42.7269 26.4377 42.9877 26.4436 43.2419 26.3955C43.4961 26.3475 43.7384 26.2463 43.9543 26.0982C44.9552 26.9378 44.8849 25.6395 45.3107 25.3505C45.4603 25.273 45.6273 25.2397 45.7936 25.2541C45.8551 26.4882 47.1105 24.7954 47.409 26.0065C47.5759 26.6304 48.906 25.7909 49.3757 26.713C49.6127 26.557 49.5073 26.0432 49.9551 26.112C50.3941 26.3643 50.3941 26.8139 50.4687 27.2176C51.2413 26.0111 51.8998 24.6853 53.2299 24.0063C53.7479 23.9512 53.9278 24.2632 53.9586 24.7357C54.1254 25.1945 53.7435 25.4789 53.6118 25.8368L52.4924 29.1857Z" fill="#F9B315"/>
<path d="M54 26C54.0823 25.6667 54.1677 25.3333 54.25 25L55 25.6667C54.6481 25.6332 54.2974 25.7501 54 26Z" fill="#EB6019"/>
<path d="M54.7746 18.7099C54.7746 19.2334 53.278 18.8119 54.0026 19.788L54.031 19.961C54.1447 20.5865 55.3619 20.7551 54.893 21.5625C54.4241 22.3699 53.529 21.7799 52.847 21.944C52.5133 21.7229 52.2318 21.4398 52.02 21.1124C51.8081 20.785 51.6705 20.4202 51.6156 20.0408C51.5161 18.8652 50.8957 17.969 50.1711 17.0862C49.9292 16.3498 49.9442 15.5604 50.2137 14.8325C50.4049 14.477 50.736 14.205 51.1372 14.0739C51.5346 13.9672 51.9571 13.9762 52.3488 14.0999C52.7405 14.2235 53.0827 14.4558 53.3301 14.766C53.5432 14.9567 53.7705 15.1431 53.619 15.4625C54.4573 15.9061 53.4627 16.8999 54.2347 17.379C53.5053 18.1465 54.5615 18.2751 54.7746 18.7099Z" fill="#ED6C1C"/>
<path d="M54 23.9483C53.1227 25.442 52.0415 26.8058 50.7876 28C50.261 27.415 50.6057 26.7965 50.4381 26.269C49.8828 25.7416 49.9594 25.0991 50.1078 24.4374C50.3424 23.9579 50.5434 23.4064 51.2616 23.5311C52.1425 23.9003 53.3824 21.8769 54 23.9483Z" fill="#EA5B15"/>
<path d="M50.6354 17C51.5449 17.4229 52.2823 17.7807 52.1102 19.082C51.9971 19.9789 52.6755 20.9409 53 21.9122H51.8005C51.7168 21.9693 51.6161 22 51.5129 22C51.4097 22 51.3091 21.9693 51.2253 21.9122C50.7675 21.4813 50.4034 20.9697 50.1536 20.4065C50.1094 19.2446 49.6276 18.027 50.6354 17Z" fill="#EE741B"/>
<path d="M51.0378 17.0864C51.0378 18.1861 51.0378 19.2858 51.0378 20.3896C51.5368 20.7615 51.2642 21.4044 51.6847 21.8087C51.7124 21.8774 51.7401 21.9461 51.7725 22.0149C52.2761 22.593 51.851 22.965 51.3936 23.3289L50.6913 24C50.5497 23.917 50.4287 23.8097 50.3358 23.6846C50.2429 23.5595 50.1799 23.4192 50.1507 23.2722C49.9745 22.4058 49.9527 21.5206 50.086 20.6483C50.1738 19.3909 49.989 18.1376 50.0075 16.8842C50.026 15.6309 50.3956 14.4786 50.3124 13.2455C50.4418 13.1606 50.6035 12.9746 50.6867 13.0029C51.1487 13.1363 50.9778 13.5204 51.0517 13.8115C51.4028 14.1309 51.2688 14.4503 51.0517 14.7657C51.0378 15.5541 51.0378 16.3182 51.0378 17.0864Z" fill="#EE771A"/>
<path d="M51.4589 21.0373H51.8712C52.4176 21.6587 53.2938 21.246 54 21.5335C53.1753 22.2709 52.3093 21.9555 51.4589 21.7839C51.2115 21.6262 50.9434 21.4639 51.0104 21.1439C51.062 20.9677 51.2785 20.9816 51.4589 21.0373Z" fill="#E95D0F"/>
<path d="M60 25.4109C60 25.2723 60 25.1337 60 25C60.5098 25.1881 61.0902 25.3564 60.9882 25.8218C60.9882 25.8911 60.7059 25.9406 60.549 26L60 25.4109Z" fill="#EB6019"/>
<path d="M51 14.4113V13.5794C51.7687 13.2516 52.5505 12.9449 53.4598 13.0084C53.4598 13.6852 54.3734 14.2562 53.8244 15L53.4686 14.7145C53.0293 14.1963 52.5901 13.7416 51.6808 14.1434L51 14.4113Z" fill="#EA5916"/>
<path d="M50 21.0966L49.9738 23.8628C47.8297 25.5192 46.6332 25.3751 46 23.3714C46.2341 21.9134 46.6219 20.4826 47.1572 19.1014C47.2142 18.8861 47.3161 18.6845 47.4565 18.5089C47.597 18.3333 47.773 18.1875 47.9738 18.0805L48.2533 18C49.3712 18.7244 48.5022 19.7622 48.8384 20.6603C48.8418 20.6123 48.8418 20.5642 48.8384 20.5163C48.8865 19.8893 48.4018 18.8218 49.1878 18.7625C50.1135 18.7074 49.5327 19.8851 49.821 20.457C49.9301 20.6476 49.8472 20.9102 50 21.0966Z" fill="#FCC30B"/>
<path d="M49.9827 20.9516C49.6592 20.279 49.6689 19.3645 49.6373 18.2613C49.2238 19.229 49.5497 20.1532 49.2773 21C49.0973 19.7565 49.3576 18.4742 49 17.4194C49.0102 16.561 49.138 15.7244 49.3697 15C49.7711 15.0484 49.7978 15.8226 49.9997 16.2629C50.0014 17.8274 49.9957 19.3903 49.9827 20.9516Z" fill="#FDD207"/>
<path d="M48 17.4593C47.9246 17.9037 47.9762 18.4078 47.6548 18.7222C47.1349 19.3618 46.9524 20.3484 46.3968 20.9554C46.3324 20.9935 46.2617 21.0076 46.192 20.9961C46.1223 20.9847 46.056 20.9482 46 20.8904C46 20.1586 46 19.4269 46 18.6951C46.6389 18.1748 46.7421 16.0879 48 17.4593Z" fill="#EA6116"/>
<path d="M49.9476 17C49.5347 16.7428 49.2015 16.3208 49 15.8C49.1098 15.2023 49.2232 14.6046 49.3329 14.0069L49.6732 13C50.2476 14.292 49.8744 15.6759 49.9476 17Z" fill="#FCDF14"/>
<path d="M43 15.8423L43.0353 15L44 16.5294L43.6824 17C43.275 16.7 43.0301 16.2846 43 15.8423Z" fill="#F7A718"/>
<path d="M36.6516 28.2003C36.7879 28.2069 36.9241 28.182 37.0514 28.1273C37.1787 28.0725 37.2944 27.989 37.3913 27.8821C37.4883 27.7751 37.5642 27.647 37.6145 27.5058C37.6648 27.3646 37.6882 27.2134 37.6834 27.0616C37.7323 26.9913 37.8034 26.9444 37.8823 26.9303C37.9611 26.9163 38.0419 26.9362 38.108 26.986C38.6855 27.5388 38.0868 28.4459 38.6048 29.0224C38.8691 29.4518 39.0071 29.9619 38.9997 30.4823C38.9771 30.6487 38.9267 30.8089 38.8511 30.9548C38.635 31.2063 38.3456 31.3643 38.0346 31.4006C37.7235 31.4369 37.411 31.3493 37.1526 31.1532C36.728 30.9122 36.3289 30.7799 35.9552 31.243L33.8618 30.5201C33.5858 30.9311 32.9701 30.2083 32.7875 30.917L33.5476 31.6304C31.7387 32.4289 30.7366 31.9375 30.4479 30.1185C30.3587 29.7311 31.7685 28.9704 30.1889 28.9231C29.6954 28.8357 29.2144 28.6768 28.7579 28.4507C28.6806 28.4654 28.6011 28.4544 28.5294 28.4191C28.4576 28.3838 28.3968 28.3258 28.3545 28.2522C27.8073 27.7468 27.4006 27.0787 27.1818 26.3257C26.9631 25.5728 26.9412 24.7662 27.1189 24C27.6751 25.0253 28.2314 26.0552 29.191 26.7025C30.8131 27.7987 31.8661 27.6475 33.6368 26.1781C34.5115 27.123 34.745 29.2066 36.6516 28.2003Z" fill="#E84B16"/>
<path d="M30.9906 30C31.6151 31.4708 32.9597 31.2682 34.1567 31.4091C34.7943 31.7174 35.5359 31.8495 36 32.4527C35.9002 32.7037 35.6704 32.7346 35.4579 32.7874L34.855 32.8491C34.8097 32.8991 34.7541 32.9386 34.6922 32.9646C34.6303 32.9906 34.5636 33.0025 34.4966 32.9996C34.4297 32.9966 34.3642 32.9789 34.3047 32.9476C34.2453 32.9162 34.1933 32.8721 34.1524 32.8182C33.5669 32.5716 32.8512 33.1485 32.3308 32.4836C31.832 32.1797 31.1944 32.1401 30.7477 31.7878C30.1492 31.3122 29.4466 30.7134 30.687 30.1145L30.9906 30Z" fill="#DB3616"/>
<path d="M41.8499 27.5053L42 27.8994V28.6591C41.1884 28.7779 41.5719 29.5281 41.1383 29.8463C40.96 29.9372 40.7584 29.9895 40.5511 29.9986C40.3437 30.0077 40.1369 29.9733 39.9487 29.8985C39.2702 29.6798 38.6797 29.299 38.2475 28.8016C38.0641 28.4075 38.292 27.9896 38.1419 27.5907C38.4365 27.0779 37.586 26.4891 38.2809 26C39.7207 26.076 40.4156 27.453 41.8499 27.5053Z" fill="#E95917"/>
<path d="M36.0302 31.0366C35.8461 29.7876 36.5424 29.8282 37.0906 30.3197C37.3025 30.5282 37.5594 30.67 37.8355 30.731C38.1116 30.7919 38.3971 30.7698 38.6631 30.6669C38.9272 30.6218 39.0633 30.73 38.9713 31.0411C38.9473 31.5596 39.0753 32.1954 38.247 31.9429C37.4732 31.7624 36.7266 31.4572 36.0302 31.0366Z" fill="#E34416"/>
<path d="M39.3457 30.7009C39.229 30.5825 39.1167 30.464 39 30.3498V30.0028C39.0504 29.7565 39.1771 29.5299 39.364 29.3514C39.551 29.1729 39.7899 29.0506 40.0505 29L40.7957 29.2666C41.4063 29.2327 41.5006 29.6093 41.5095 30.0578C41.752 30.4809 42.156 30.7136 43 30.7729C41.5006 31.6445 40.495 29.6516 39.3457 30.7009Z" fill="#F7AC15"/>
<path d="M41.5228 30L41.013 29.1472C41.0835 28.6887 40.7372 27.7351 41.5773 28.0698C41.6799 28.7392 42.5072 29.4131 41.5228 30Z" fill="#E34B16"/>
<path d="M32.8287 31C32.4954 30.8627 32.1157 30.7998 32 30.2163C32.7361 29.6443 33.3426 30.3708 34 30.5195C33.6944 31.0286 33.2315 30.9085 32.8287 31Z" fill="#F9BD0E"/>
<path d="M31 25.7552C29.4585 26.231 28.6923 26.0308 28 25L31 25.7552Z" fill="#EE7722"/>
<path d="M44.7646 25.6714C44.8477 27.0367 43.4805 25.9648 43.0463 26.462C42.0901 25.6754 42.2241 26.8084 41.8222 27C41.5497 26.1197 41.0092 25.3086 41 24.3672C41.4619 22.6228 42.3118 22.5576 44.2334 24.1145C44.3853 24.1898 44.5225 24.2861 44.6399 24.3998C44.9355 24.8033 45.2126 25.2108 44.7646 25.6714Z" fill="#FABA11"/>
<path d="M43.9515 24.9187L43.51 25C43.4349 24.0544 42.4151 24.2512 41.8985 23.9217C41.3069 23.5452 41.9691 25.0385 41.064 24.9572C40.5169 23.7414 40.1584 22.4538 40 21.1363L40.3885 21.47C41.1126 20.3575 41.457 21.547 41.9735 21.7139C42.1392 21.7595 42.3072 21.7967 42.4769 21.8251L42.861 22.176C43.2866 22.4908 43.6138 22.9138 43.8063 23.398C43.9988 23.8821 44.0491 24.4085 43.9515 24.9187Z" fill="#FBC00D"/>
<path d="M37.2297 21.27L36.2645 22C35.5393 21.0196 36.4534 20.5894 37.2297 20.1274H37.6434C37.696 20.0873 37.7603 20.0552 37.832 20.0333C37.9037 20.0113 37.9812 20 38.0596 20C38.138 20 38.2156 20.0113 38.2873 20.0333C38.3589 20.0552 38.4232 20.0873 38.4758 20.1274C38.8997 20.3072 39.4053 20.5294 38.4758 20.6811C38.2143 20.7016 37.9641 20.766 37.7469 20.8687C37.5297 20.9713 37.3521 21.1091 37.2297 21.27Z" fill="#EA5C13"/>
<path d="M38.2587 26.9989L37.7201 26.5391C37.3932 26.2754 36.9316 26.0976 37.0085 25.5641C37.0643 25.4126 37.1637 25.2793 37.2953 25.1795C37.4269 25.0797 37.5852 25.0175 37.7522 25L38.7459 26.0485C39.137 26.6249 39.1498 27.0235 38.2587 26.9989Z" fill="#F9BF11"/>
<path d="M38.0317 26.9509C38.1507 26.8542 38.2465 26.7129 38.3076 26.5443C38.3687 26.3756 38.3925 26.1866 38.3762 26H38.7342C38.6481 26.6687 39.3732 27.3313 38.7342 28C38.593 27.8893 38.4685 27.7436 38.3671 27.5706L38 27.4969L38.0317 26.9509Z" fill="#F08A16"/>
<path d="M38 25.5183L37.5902 25.9736C37.2172 26.0965 37.1352 25.7641 37 25.5183C37.0143 25.4249 37.0143 25.3294 37 25.236C37.4508 24.7989 37.7623 25.0129 38 25.5183Z" fill="#FBCF0A"/>
<path d="M37.0205 25L37.6107 25.3937L38 26L37 25.6811C37.0041 25.4606 37.0123 25.2283 37.0205 25Z" fill="#ED721C"/>
<path d="M44.0065 24.3044C43.5363 23.5295 43.1967 22.6889 43 21.8135V21.487C43.925 19.9987 44.0595 19.9326 45.661 20.7332C45.7345 20.7886 45.8198 20.8282 45.9109 20.8494C46.002 20.8705 46.0968 20.8727 46.1888 20.8557C46.2809 20.8388 46.368 20.8031 46.4443 20.7511C46.5206 20.6991 46.5842 20.632 46.6308 20.5544C46.6308 19.6723 47.1606 19.2098 48 19C47.6496 20.3472 47.3005 21.6969 46.9527 23.0492C46.5901 23.6399 47.079 24.5026 46.2926 24.9611L46.0033 25C45.498 24.6425 44.7808 24.7863 44.3162 24.3394C44.2143 24.3316 44.1125 24.32 44.0065 24.3044Z" fill="#F0801D"/>
<path d="M47 20.7344C46.8429 21.1664 47.0898 22.573 46.3356 21.7425C44.9439 20.2207 44.0685 20.8544 43 21.8865C43.4489 19.7071 43.9383 19.5486 46.6409 20.7344H47Z" fill="#EC6F16"/>
<path d="M46 25.4356C46.0071 24.5603 46.2363 23.7093 46.6559 23C46.7733 23.3168 46.4939 24.2079 47.1336 23.797C48.0729 23.1881 47.8623 24.2921 48.1538 24.6634C48.1903 23.0099 49.4373 24.0693 49.919 23.4406C49.9433 23.7129 49.9717 23.9851 50 24.2574C49.9717 24.9257 49.9474 25.5941 49.919 26.2624C49.4008 26.6634 49.8988 27.7921 49.1093 28C48.3644 27.599 49.919 26.6139 48.9514 26.6733C48.5709 26.6733 47.5101 25.6832 47.4777 27.3762C47.0121 26.8267 47.5749 26.2178 47.1336 25.8267L46.5547 27.2327C46.1822 26.6139 46.5223 25.797 46 25.4356Z" fill="#FABA11"/>
<path d="M44 25.1025C44.6184 25.4056 45.9324 24.3449 46 25.7465C45.9324 26.2314 45.9227 26.7806 45.2802 26.9965C45.1401 27.0458 44.7053 26.5571 44.4058 26.3147L44 25.1025Z" fill="#EB6816"/>
<path d="M51 14.3316C52.0614 13.7251 52.7297 13.952 53 15C52.3759 14.6947 51.8305 14.1996 51 14.3316Z" fill="#EC671C"/>
<path d="M40 29.406C39.8594 29.6618 39.6313 29.87 39.3493 30L39.0072 29.2155C38.9952 29.175 38.9982 29.132 39.0158 29.0931C39.0334 29.0542 39.0645 29.0215 39.1046 29L40 29.406Z" fill="#F9B615"/>
<path d="M38.8018 28.5013C38.7331 28.6404 38.6702 28.7795 38.6015 28.9138C38.0864 29.0865 37.8918 29.0241 38.0578 28.5013C38.1822 28.0057 38.272 27.5044 38.3268 27L38.7903 27.3358C38.9252 27.5087 38.9979 27.7105 39 27.9171C39.002 28.1237 38.9332 28.3265 38.8018 28.5013Z" fill="#E94E22"/>
<path d="M67.4815 56.3029C67.927 42.8711 58.7352 31.6657 46.9509 31.2747C35.1666 30.8838 25.2524 41.4555 24.8068 54.8872C24.3612 68.3189 33.5531 79.5244 45.3373 79.9154C57.1216 80.3063 67.0359 69.7346 67.4815 56.3029Z" fill="#85BE4F"/>
<path d="M53 40C56.3137 40 59 37.3137 59 34C59 30.6863 56.3137 28 53 28C49.6863 28 47 30.6863 47 34C47 37.3137 49.6863 40 53 40Z" fill="white" stroke="#1D1D1B" stroke-miterlimit="10"/>
<path d="M38.5 40C42.0899 40 45 37.3137 45 34C45 30.6863 42.0899 28 38.5 28C34.9102 28 32 30.6863 32 34C32 37.3137 34.9102 40 38.5 40Z" fill="white" stroke="#1D1D1B" stroke-miterlimit="10"/>
<path d="M45.5 80C52.9558 80 59 73.732 59 66C59 58.268 52.9558 52 45.5 52C38.0442 52 32 58.268 32 66C32 73.732 38.0442 80 45.5 80Z" fill="#2DA03A"/>
<path d="M38.5 40C40.9853 40 43 37.9853 43 35.5C43 33.0147 40.9853 31 38.5 31C36.0147 31 34 33.0147 34 35.5C34 37.9853 36.0147 40 38.5 40Z" fill="black" stroke="#1D1D1B" stroke-miterlimit="10"/>
<path d="M52.5 40C54.9853 40 57 37.9853 57 35.5C57 33.0147 54.9853 31 52.5 31C50.0147 31 48 33.0147 48 35.5C48 37.9853 50.0147 40 52.5 40Z" fill="black" stroke="#1D1D1B" stroke-miterlimit="10"/>
<path d="M37 42.3816C37.1699 46.9908 40.8996 50.6501 45.2643 50.9766C50.2373 51.3455 54.9911 47.3088 55 42" fill="#85BE4F"/>
<path d="M37 42.3816C37.1699 46.9908 40.8996 50.6501 45.2643 50.9766C50.2373 51.3455 54.9911 47.3088 55 42" stroke="#1D1D1B" stroke-width="3" stroke-miterlimit="10"/>
<path d="M32 25L44 27" stroke="#1D1D1B" stroke-width="2" stroke-miterlimit="10"/>
<path d="M48 27L59 25" stroke="#1D1D1B" stroke-width="2" stroke-miterlimit="10"/>
<defs>
<filter id="filter0_d" x="0" y="0" width="94" height="94" filterUnits="userSpaceOnUse" color-interpolation-filters="sRGB">
<feFlood flood-opacity="0" result="BackgroundImageFix"/>
<feColorMatrix in="SourceAlpha" type="matrix" values="0 0 0 0 0 0 0 0 0 0 0 0 0 0 0 0 0 0 127 0"/>
<feOffset dy="2"/>
<feGaussianBlur stdDeviation="1"/>
<feColorMatrix type="matrix" values="0 0 0 0 0.521569 0 0 0 0 0.745098 0 0 0 0 0.309804 0 0 0 0.25 0"/>
<feBlend mode="normal" in2="BackgroundImageFix" result="effect1_dropShadow"/>
<feBlend mode="normal" in="SourceGraphic" in2="effect1_dropShadow" result="shape"/>
</filter>
</defs>
</svg>
