<svg width="94" height="94" viewBox="0 0 94 94" fill="none" xmlns="http://www.w3.org/2000/svg">
<g filter="url(#filter0_d)">
<circle cx="47" cy="45" r="45" fill="white"/>
<circle cx="47" cy="45" r="44.85" stroke="#85BE4F" stroke-opacity="0.15" stroke-width="0.3"/>
</g>
<path d="M22.836 21.2078C20.8481 23.3297 20.5731 26.6894 21.5381 28.8951C24.1677 34.8933 36.6934 34.0696 40.6354 33.8137C45.7161 33.4786 49.8028 33.2134 51.3854 30.5052C54.1743 25.7774 46.6183 16.6475 45.7305 17.0105C45.5279 17.0943 45.856 17.6015 45.6389 18.1738C44.341 21.5568 28.3172 15.3632 22.836 21.2078Z" fill="#3A2222"/>
<path d="M60.0884 48.9108C60.5811 34.056 50.4154 21.6632 37.3826 21.2309C24.3497 20.7986 13.3851 32.4903 12.8923 47.3451C12.3995 62.2 22.5652 74.5927 35.598 75.025C48.6309 75.4574 59.5956 63.7656 60.0884 48.9108Z" fill="#85BE4F"/>
<path d="M36.5 74C44.5081 74 51 67.2843 51 59C51 50.7157 44.5081 44 36.5 44C28.4919 44 22 50.7157 22 59C22 67.2843 28.4919 74 36.5 74Z" fill="#2DA03A"/>
<path d="M29 33C32.866 33 36 29.866 36 26C36 22.134 32.866 19 29 19C25.134 19 22 22.134 22 26C22 29.866 25.134 33 29 33Z" fill="white" stroke="#1D1D1B" stroke-miterlimit="10"/>
<path d="M44 33C47.866 33 51 29.866 51 26C51 22.134 47.866 19 44 19C40.134 19 37 22.134 37 26C37 29.866 40.134 33 44 33Z" fill="white" stroke="#1D1D1B" stroke-miterlimit="10"/>
<path d="M29 33C32.3137 33 35 30.7614 35 28C35 25.2386 32.3137 23 29 23C25.6863 23 23 25.2386 23 28C23 30.7614 25.6863 33 29 33Z" fill="black" stroke="#1D1D1B" stroke-miterlimit="10"/>
<path d="M43 33C45.7614 33 48 30.7614 48 28C48 25.2386 45.7614 23 43 23C40.2386 23 38 25.2386 38 28C38 30.7614 40.2386 33 43 33Z" fill="black" stroke="#1D1D1B" stroke-miterlimit="10"/>
<path d="M78.027 63.9547C83.9382 56.4564 84.3637 46.9355 78.9773 42.6893C73.591 38.443 64.4325 41.0793 58.5213 48.5776C52.6101 56.076 52.1846 65.5968 57.571 69.8431C62.9573 74.0893 72.1158 71.453 78.027 63.9547Z" fill="#B17F4A"/>
<path d="M67.1822 67.5327C68.681 65.6316 68.9046 63.3088 67.6817 62.3447C66.4587 61.3806 64.2524 62.1403 62.7536 64.0415C61.2548 65.9427 61.0312 68.2654 62.2541 69.2295C63.4771 70.1936 65.6834 69.4339 67.1822 67.5327Z" fill="white"/>
<path d="M71.5 49C72.8807 49 74 47.6569 74 46C74 44.3431 72.8807 43 71.5 43C70.1193 43 69 44.3431 69 46C69 47.6569 70.1193 49 71.5 49Z" fill="#C21B1C"/>
<path d="M65 55C66.6569 55 68 53.6569 68 52C68 50.3431 66.6569 49 65 49C63.3432 49 62 50.3431 62 52C62 53.6569 63.3432 55 65 55Z" fill="#DCDD25"/>
<path d="M78.5 57C79.3284 57 80 55.8807 80 54.5C80 53.1193 79.3284 52 78.5 52C77.6716 52 77 53.1193 77 54.5C77 55.8807 77.6716 57 78.5 57Z" fill="#2E4697"/>
<path d="M73.5 64C75.433 64 77 62.433 77 60.5C77 58.567 75.433 57 73.5 57C71.567 57 70 58.567 70 60.5C70 62.433 71.567 64 73.5 64Z" fill="#308C36"/>
<path d="M73 55C74.1046 55 75 54.1046 75 53C75 51.8954 74.1046 51 73 51C71.8954 51 71 51.8954 71 53C71 54.1046 71.8954 55 73 55Z" fill="#752D87"/>
<path d="M63.0812 59.3307C64.2241 62.3319 64.951 62.1873 64.994 63.6956C65.0465 64.7309 64.7529 65.752 64.1667 66.5729C63.649 67.3068 62.8943 67.803 62.053 67.9625C60.3028 68.2518 59.0929 66.7795 58.9303 66.5729C58.5238 66.0564 57.7539 64.8218 58.1939 64.0934C58.5525 63.5045 59.4994 63.5768 59.5711 63.5768C59.8938 63.6161 60.2061 63.724 60.4901 63.8942C60.7741 64.0644 61.0241 64.2936 61.2257 64.5686C61.1683 64.6565 58.8347 63.6491 58.1939 61.6914C57.9452 60.9372 57.8687 59.8059 58.3756 59.4081C59.0355 58.8916 60.5323 60.0332 61.2448 60.6996C61.6448 61.097 62.0142 61.5289 62.3495 61.991C62.3495 61.991 60.5706 60.3896 60.8766 59.1137C61.0344 58.4525 61.7517 57.8894 62.2539 58.0186C62.6699 58.1581 62.8373 58.6746 63.0812 59.3307Z" fill="#2DA03A" stroke="#006633" stroke-width="0.25" stroke-miterlimit="10"/>
<path d="M46.5577 18.7875C43.841 18.7491 41.2663 20.0724 38.5643 20.3553C34.6875 20.758 28.1332 22.6374 23.1452 26.6169C20.1642 29.0141 18.6027 31.4401 17.5993 30.9319C16.5958 30.4237 17.1098 27.7196 17.3154 26.6169C17.7632 23.5019 19.2501 20.6194 21.5446 18.4183C24.1634 15.9971 26.9731 15.3594 30.1058 14.645C33.2505 13.9351 36.5032 13.8099 39.695 14.2758C42.9355 14.7073 42.0201 15.1916 45.6179 15.8436C46.2347 15.9539 47.3703 16.1409 47.7815 16.9464C47.9197 17.1399 47.9958 17.3694 47.9998 17.6056C48.0039 17.8417 47.9357 18.0737 47.8042 18.2716C47.6726 18.4695 47.4837 18.6244 47.2615 18.7163C47.0394 18.8082 46.7943 18.833 46.5577 18.7875Z" fill="#9F2E2E"/>
<path d="M30.978 15.5785C31.2843 14.7925 28.3251 12.417 26.2353 13.1327C25.6869 13.3171 24.9854 13.7914 25.0002 14.3139C25.0299 15.2272 27.253 16.0044 29.0809 16C29.7232 15.9956 30.8199 15.9956 30.978 15.5785Z" fill="#3A2222"/>
<path d="M27 38C29.918 40.6961 33.702 42.1232 37.5838 41.9917C41.0289 41.8177 44.3297 40.4844 47 38.1882" stroke="#006633" stroke-width="3" stroke-miterlimit="10"/>
<defs>
<filter id="filter0_d" x="0" y="0" width="94" height="94" filterUnits="userSpaceOnUse" color-interpolation-filters="sRGB">
<feFlood flood-opacity="0" result="BackgroundImageFix"/>
<feColorMatrix in="SourceAlpha" type="matrix" values="0 0 0 0 0 0 0 0 0 0 0 0 0 0 0 0 0 0 127 0"/>
<feOffset dy="2"/>
<feGaussianBlur stdDeviation="1"/>
<feColorMatrix type="matrix" values="0 0 0 0 0.521569 0 0 0 0 0.745098 0 0 0 0 0.309804 0 0 0 0.25 0"/>
<feBlend mode="normal" in2="BackgroundImageFix" result="effect1_dropShadow"/>
<feBlend mode="normal" in="SourceGraphic" in2="effect1_dropShadow" result="shape"/>
</filter>
</defs>
</svg>
