<svg width="94" height="94" viewBox="0 0 94 94" fill="none" xmlns="http://www.w3.org/2000/svg">
<g filter="url(#filter0_d)">
<circle cx="47" cy="45" r="45" fill="white"/>
<circle cx="47" cy="45" r="44.75" stroke="#85BE4F" stroke-opacity="0.15" stroke-width="0.5"/>
</g>
<path d="M27.2385 68.174C26.3381 67.9393 25.3996 67.9421 24.5003 68.1819C23.6011 68.4218 22.7668 68.892 22.0663 69.5537C20.3386 71.0293 21.4137 73.7527 21.6605 74.2626C22.5161 75.9662 25.4669 78.6056 39.1842 80.7291C45.4987 81.7755 51.8886 82.1772 58.2711 81.9288C63.4652 81.7068 69.0925 81.023 69.1035 80.1772C69.1035 79.0854 59.7794 77.9517 59.8727 77.0819C59.9056 76.716 61.573 76.8779 63.5639 75.6002C64.2456 75.1565 64.8677 74.6114 65.4123 73.9806" stroke="#006633" stroke-miterlimit="10"/>
<path d="M68.9667 42.5378C71.362 41.0652 75.4432 42.7758 76.6806 45.7377C77.7307 48.2566 76.7941 51.8274 74.2171 52.7796C71.9467 53.5934 69.4832 52.0101 68.3083 50.3769C66.577 47.9687 66.6395 43.9661 68.9667 42.5378Z" fill="#2DA03A"/>
<path d="M72.2007 47.5769C72.7766 30.2161 60.8959 15.7328 45.6645 15.2276C30.4331 14.7223 17.6187 28.3864 17.0428 45.7472C16.4669 63.1079 28.3475 77.5912 43.5789 78.0965C58.8104 78.6018 71.6247 64.9377 72.2007 47.5769Z" fill="#85BE4F"/>
<path d="M35.6035 26C40.2979 26 44.1035 22.4183 44.1035 18C44.1035 13.5817 40.2979 10 35.6035 10C30.9091 10 27.1035 13.5817 27.1035 18C27.1035 22.4183 30.9091 26 35.6035 26Z" fill="white" stroke="#1D1D1B" stroke-miterlimit="10"/>
<path d="M53.6035 26C57.7456 26 61.1035 22.4183 61.1035 18C61.1035 13.5817 57.7456 10 53.6035 10C49.4614 10 46.1035 13.5817 46.1035 18C46.1035 22.4183 49.4614 26 53.6035 26Z" fill="white" stroke="#1D1D1B" stroke-miterlimit="10"/>
<path d="M44.1035 78C53.4924 78 61.1035 70.165 61.1035 60.5C61.1035 50.835 53.4924 43 44.1035 43C34.7147 43 27.1035 50.835 27.1035 60.5C27.1035 70.165 34.7147 78 44.1035 78Z" fill="#2DA03A"/>
<path d="M36.1035 26C39.4172 26 42.1035 23.3137 42.1035 20C42.1035 16.6863 39.4172 14 36.1035 14C32.7898 14 30.1035 16.6863 30.1035 20C30.1035 23.3137 32.7898 26 36.1035 26Z" fill="black" stroke="#1D1D1B" stroke-miterlimit="10"/>
<path d="M54.1035 26C57.4172 26 60.1035 23.3137 60.1035 20C60.1035 16.6863 57.4172 14 54.1035 14C50.7898 14 48.1035 16.6863 48.1035 20C48.1035 23.3137 50.7898 26 54.1035 26Z" fill="black" stroke="#1D1D1B" stroke-miterlimit="10"/>
<path d="M75.503 43L64.4728 72.154C64.4728 72.154 63.6419 72.9516 64.4728 74.3697C65.3038 75.7878 67.4438 74.3697 67.4438 74.3697L81.1035 45.0607L75.503 43Z" fill="#3C3F3A"/>
<path d="M82.4499 44.4053C82.382 44.5996 82.3274 44.7983 82.2865 45L75.1035 42.2422C75.1363 42.0392 75.1893 41.84 75.2617 41.6475C76.5064 38.4108 79.1274 36.3846 81.1157 37.1687C83.1039 37.9529 83.6998 41.1686 82.4499 44.4053Z" fill="black" stroke="#1D1D1B" stroke-miterlimit="10"/>
<path d="M80.1802 49.4291C79.2685 48.4729 78.1769 47.9948 77.5008 48C77.1069 48.0131 76.7306 48.1405 76.4364 48.3604C76.1422 48.5804 75.9484 48.8792 75.8883 49.2057C75.8883 49.6422 76.3907 49.954 77.2342 50.4789C77.6798 50.7703 78.1599 51.0228 78.6669 51.2324C78.6979 51.1856 75.8325 49.0082 74.0959 49.6734C73.8083 49.7715 73.5612 49.9379 73.3849 50.1521C73.2086 50.3662 73.1108 50.6189 73.1035 50.879C73.1593 51.1908 73.4756 51.4351 74.6293 51.9184C75.6188 52.3447 76.6377 52.7213 77.6807 53.046C77.6807 53.0149 74.9642 51.6949 73.823 52.4432C73.6069 52.596 73.4493 52.7987 73.3699 53.0261C73.2904 53.2534 73.2927 53.4953 73.3764 53.7216C73.5439 54.0906 74.0276 54.2413 74.989 54.5479C75.6608 54.8229 76.3939 54.9769 77.1411 55C78.0474 54.9404 78.9016 54.621 79.56 54.0958C79.9259 53.8307 81.1477 52.9369 81.0857 51.6949C81.1355 51.285 81.0806 50.8709 80.9244 50.4802C80.7683 50.0895 80.5146 49.7312 80.1802 49.4291Z" fill="#2DA03A" stroke="#006633" stroke-width="0.25" stroke-miterlimit="10"/>
<path d="M27.1035 10L38.1035 7" stroke="#006633" stroke-miterlimit="10"/>
<path d="M51.1035 7L61.1035 11" stroke="#006633" stroke-miterlimit="10"/>
<path d="M45.1035 38C46.2081 38 47.1035 36.433 47.1035 34.5C47.1035 32.567 46.2081 31 45.1035 31C43.9989 31 43.1035 32.567 43.1035 34.5C43.1035 36.433 43.9989 38 45.1035 38Z" fill="#006633"/>
<defs>
<filter id="filter0_d" x="0" y="0" width="94" height="94" filterUnits="userSpaceOnUse" color-interpolation-filters="sRGB">
<feFlood flood-opacity="0" result="BackgroundImageFix"/>
<feColorMatrix in="SourceAlpha" type="matrix" values="0 0 0 0 0 0 0 0 0 0 0 0 0 0 0 0 0 0 127 0"/>
<feOffset dy="2"/>
<feGaussianBlur stdDeviation="1"/>
<feColorMatrix type="matrix" values="0 0 0 0 0.521569 0 0 0 0 0.745098 0 0 0 0 0.309804 0 0 0 0.15 0"/>
<feBlend mode="normal" in2="BackgroundImageFix" result="effect1_dropShadow"/>
<feBlend mode="normal" in="SourceGraphic" in2="effect1_dropShadow" result="shape"/>
</filter>
</defs>
</svg>
